<svg width="282" height="100" viewBox="0 0 282 100" fill="none" xmlns="http://www.w3.org/2000/svg">
<g filter="url(#filter0_d_1_520)">
<path d="M30 34C30 28.4772 34.4772 24 40 24H242C247.523 24 252 28.4772 252 34V54C252 59.5228 247.523 64 242 64H40C34.4771 64 30 59.5228 30 54V34Z" fill="white"/>
<path d="M40 24.5H242C247.247 24.5 251.5 28.7533 251.5 34V54C251.5 59.2467 247.247 63.5 242 63.5H40C34.7533 63.5 30.5 59.2467 30.5 54V34C30.5 28.7533 34.7533 24.5 40 24.5Z" stroke="#69697B" stroke-opacity="0.1"/>
</g>
<defs>
<filter id="filter0_d_1_520" x="0" y="0" width="282" height="100" filterUnits="userSpaceOnUse" color-interpolation-filters="sRGB">
<feFlood flood-opacity="0" result="BackgroundImageFix"/>
<feColorMatrix in="SourceAlpha" type="matrix" values="0 0 0 0 0 0 0 0 0 0 0 0 0 0 0 0 0 0 127 0" result="hardAlpha"/>
<feOffset dy="6"/>
<feGaussianBlur stdDeviation="15"/>
<feColorMatrix type="matrix" values="0 0 0 0 0 0 0 0 0 0 0 0 0 0 0 0 0 0 0.04 0"/>
<feBlend mode="normal" in2="BackgroundImageFix" result="effect1_dropShadow_1_520"/>
<feBlend mode="normal" in="SourceGraphic" in2="effect1_dropShadow_1_520" result="shape"/>
</filter>
</defs>
</svg>
