<svg width="160" height="208" viewBox="0 0 160 208" fill="none" xmlns="http://www.w3.org/2000/svg">
<g clip-path="url(#clip0_1_1351)">
<path d="M150.415 82.4543C150.415 82.4543 111.633 55.4313 77.2633 53.1913C40.6956 50.8084 24.9853 83.2038 24.9853 83.2038L14.9384 89.7389L59.9774 105.857L139.588 92.2994L150.415 82.4543Z" fill="#FFECD2"/>
<path d="M150.414 82.4543L133.648 134.823L129.79 146.863L120.806 174.927L109.529 181.912L119.926 150.914L124.106 138.451L139.589 92.2988L150.414 82.4543Z" fill="#BC0D01"/>
<path d="M133.648 134.823L129.79 146.863L119.926 150.913L124.106 138.45L133.648 134.823Z" fill="#CCBB72"/>
<path d="M139.588 92.2995L136.336 101.995L147.417 91.8199L150.415 82.4543L139.588 92.2995Z" fill="#CCBB72"/>
<path d="M0 56.7059C0 56.7059 17.1273 70.6958 24.684 95.079L34.5578 92.275C34.5578 92.275 22.0106 61.0168 13.3744 52.6293C4.7379 44.2414 1.39596 50.3182 0 56.7059Z" fill="#F1C23F"/>
<path opacity="0.15" d="M4.69618 51.7852C8.77996 54.3063 11.8603 58.403 14.5844 62.168C21.4465 71.6524 25.1755 82.8941 27.8938 94.1676L34.5578 92.275C34.5578 92.275 22.0105 61.0168 13.3744 52.6293C7.75668 47.1732 4.38042 47.84 2.32138 50.7289C3.09284 50.9385 3.88847 51.2863 4.69618 51.7852Z" fill="#F91E00"/>
<path d="M32.7015 87.8241C32.7015 87.8241 21.9821 38.5325 21.3105 30.7664C21.3105 30.7664 24.6867 24.5969 32.4902 26.4187L42.9788 81.633L32.7015 87.8241Z" fill="#F1C23F"/>
<path opacity="0.15" d="M26.5785 27.9329C27.4989 28.0822 28.3643 28.4836 29.124 29.2506C30.5336 30.674 31.058 32.8372 31.6255 34.6568C32.7552 38.2788 33.8066 41.912 34.5909 45.6189C36.2835 53.6188 37.0293 61.809 37.9461 69.9157C38.4821 74.6547 38.8704 79.4016 38.8135 84.1421L42.9791 81.6329L32.4902 26.4186C29.768 25.7831 27.5862 26.1211 25.8967 26.8297C26.1719 27.1912 26.3984 27.558 26.5785 27.9329Z" fill="#F91E00"/>
<path d="M44.8218 77.3237C44.8218 77.3237 39.0224 35.0456 53.1902 16.676C53.1902 16.676 60.7512 14.993 63.5403 17.7278L64.5679 22.5655C64.5679 22.5655 56.1263 48.3672 57.0806 67.8583L44.8218 77.3237Z" fill="#F1C23F"/>
<path opacity="0.15" d="M63.5403 17.7278L64.5679 22.5655C64.5679 22.5655 56.1263 48.3672 57.0806 67.8583C57.0806 67.8583 46.6232 67.0746 44.7945 37.3388C43.9977 24.3783 57.7047 30.7251 57.7047 30.7251C57.7047 30.7251 61.5729 19.4167 63.5403 17.7278Z" fill="#F91E00"/>
<path d="M40.6371 16.0449C40.6371 16.0449 44.1607 47.2454 57.0806 67.8587L67.5048 64.5632C67.5048 64.5632 55.9793 28.9461 51.6484 13.1001L47.9049 11.5579L40.6371 16.0449Z" fill="#F1C23F"/>
<path opacity="0.15" d="M62.3471 66.1937L67.5048 64.5632C67.5048 64.5632 55.9793 28.9461 51.6484 13.1001L47.9049 11.5579L62.3471 66.1937Z" fill="#F91E00"/>
<path d="M63.3797 65.867C63.3797 65.867 54.2177 30.2775 70.147 0.970643C70.147 0.970643 76.0934 -1.83412 80.7912 2.09247C80.7912 2.09247 69.4867 42.1269 74.6249 64.7035L63.3797 65.867Z" fill="#F1C23F"/>
<path opacity="0.15" d="M74.4702 0.00743798C74.1026 0.743535 73.7451 1.48298 73.4032 2.22764C73.3615 2.3386 73.3186 2.44918 73.2777 2.56013C73.7825 1.68255 74.345 0.842574 74.9029 0.000736038C74.7567 -8.62223e-06 74.6125 0.00259769 74.4702 0.00743798Z" fill="#F91E00"/>
<path opacity="0.15" d="M80.0739 1.55487C78.8794 3.41354 77.5634 5.17988 76.8071 7.34125C75.702 10.4994 74.8619 13.7759 74.2581 17.0531C72.9697 24.044 71.8677 31.0829 70.6436 38.0853C69.5046 44.6018 68.3874 51.4765 68.953 58.0902C69.1475 60.3655 69.4995 62.7924 69.6508 65.2185L74.6249 64.7039C69.4867 42.1269 80.7911 2.09252 80.7911 2.09252C80.5549 1.89518 80.3152 1.71944 80.0739 1.55487Z" fill="#F91E00"/>
<path d="M91.215 16.1848C91.215 16.1848 82.7738 14.6206 79.1761 20.3917C79.1761 20.3917 67.7976 42.4073 74.6245 64.7031L84.3876 65.1239L87.4953 63.2082L95.0318 19.1292L91.215 16.1848Z" fill="#F1C23F"/>
<path opacity="0.15" d="M91.215 16.1848L84.388 65.1239L87.4957 63.2083L95.0321 19.1292L91.215 16.1848Z" fill="#F91E00"/>
<path d="M92.11 69.0571C92.11 69.0571 98.4634 38.6515 91.1328 22.8483L98.8123 20.2476L103.699 23.1149C103.699 23.1149 115.288 43.1854 104.467 74.2578L92.11 69.0571Z" fill="#F1C23F"/>
<path opacity="0.15" d="M98.8123 20.2476L103.699 23.1149C103.699 23.1149 115.288 43.1854 104.467 74.2578L97.5566 71.3495C106.766 40.0228 98.8123 20.2476 98.8123 20.2476Z" fill="#F91E00"/>
<path d="M100.487 77.3922C100.487 77.3922 112.705 37.3179 124.154 26.5159C124.154 26.5159 130.577 26.3156 134.067 29.8497C134.067 29.8497 114.659 66.9237 113.961 86.7272L100.487 77.3922Z" fill="#F1C23F"/>
<path opacity="0.15" d="M133.35 29.2062C130.489 31.3624 122.653 47.8782 120.741 52.7211C116.591 63.229 112.134 85.4612 112.134 85.4612L113.961 86.7271C114.659 66.9233 134.067 29.8496 134.067 29.8496C133.84 29.6192 133.6 29.4058 133.35 29.2062Z" fill="#F91E00"/>
<path d="M111.588 20.181L98.463 74.192L109.842 80.1928C109.842 80.1928 123.944 34.3173 121.71 22.5152C121.71 22.5148 119.476 17.2475 111.588 20.181Z" fill="#F1C23F"/>
<path opacity="0.15" d="M121.71 22.5148C121.71 22.5148 121.131 21.1659 119.539 20.2134C120.05 25.2559 118.437 30.7656 117.431 35.4995C116.638 39.2332 116.072 42.9982 115.075 46.6921C113.935 50.9106 112.32 55.0133 110.892 59.148C109.668 62.6911 108.22 66.2018 107.153 69.7892C106.459 72.1222 105.913 74.4917 105.183 76.8166C105.103 77.0727 105.02 77.336 104.936 77.6044L109.843 80.1921C109.843 80.1925 123.945 34.3173 121.71 22.5148Z" fill="#F91E00"/>
<path d="M113.961 86.7272C113.961 86.7272 121.507 61.5636 130.674 50.492L142.841 46.6671L143.355 49.8456C143.355 49.8456 126.694 72.394 123.64 92.7824L113.961 86.7272Z" fill="#F1C23F"/>
<path opacity="0.15" d="M113.961 86.7272C113.961 86.7272 121.507 61.5636 130.674 50.492L142.841 46.6671L143.355 49.8456C143.355 49.8456 126.694 72.394 123.64 92.7824L113.961 86.7272Z" fill="#F91E00"/>
<path d="M128.66 92.948C128.66 92.948 133.516 71.5647 157.31 61.2263L160 68.0492C160 68.0492 150.249 77.3206 139.588 92.2994C128.927 107.279 128.66 92.948 128.66 92.948Z" fill="#F1C23F"/>
<path opacity="0.15" d="M158.71 64.7775L160 68.0492C160 68.0492 150.249 77.3206 139.588 92.2994C136.922 96.0443 134.907 97.9574 133.383 98.7203C128.81 101.009 158.71 64.7775 158.71 64.7775Z" fill="#F91E00"/>
<path d="M138.266 39.9174C138.266 39.9174 126.927 78.5359 115.971 96.3213L127.561 100.337L150.028 47.5316L147.981 42.0803L138.266 39.9174Z" fill="#F1C23F"/>
<path opacity="0.15" d="M123.134 98.8033L127.561 100.337L150.028 47.5315L147.981 42.0803L123.134 98.8033Z" fill="#F91E00"/>
<path d="M14.9384 89.7389L28.5331 88.0928C28.5331 88.0928 41.745 58.1002 77.5506 61.5755C113.356 65.0501 118.717 88.8248 118.717 88.8248L139.588 92.2994L109.527 181.911C109.527 181.911 71.9975 171.122 36.1919 178.62L14.9384 89.7389Z" fill="#F91E00"/>
<path d="M124.107 138.449C114.575 135.369 104.784 133.144 94.8759 131.768C93.5762 121.033 84.0318 112.697 72.4435 112.697C61.0158 112.697 51.5759 120.804 50.0704 131.324C41.9488 132.289 33.8951 133.83 25.9852 135.936L29.0305 148.67C36.68 146.568 44.4842 145.056 52.3571 144.137C56.1076 151.089 63.6916 155.846 72.4439 155.846C81.0282 155.846 88.4941 151.272 92.3159 144.537C101.682 145.821 110.934 147.947 119.926 150.913L124.107 138.449Z" fill="#F8E38B"/>
<path opacity="0.8" d="M32.2684 153.151C34.1574 164.992 38.4073 181.836 49.2576 168.972C60.6393 155.478 59.9707 136.097 74.9325 124.222C84.3732 116.73 105.6 113.566 108.042 100.134C110.055 89.058 97.9281 77.3728 89.2702 71.8009C71.7301 60.5126 48.8799 67.1788 35.829 82.4633C22.2137 98.4087 28.5791 126.864 31.1636 145.283C31.4135 147.064 31.753 149.921 32.2684 153.151Z" fill="#FFD99E"/>
<path d="M158.354 189.19C158.354 189.19 85.3743 165.529 55.0679 170.029L46.594 174.456L45.9839 186.566L56.1454 185.865C56.1454 185.865 114.328 183.815 152.244 196.867C152.244 196.867 162.761 195.015 158.354 189.19Z" fill="#F1C23F"/>
<path opacity="0.15" d="M158.354 189.189L46.5943 174.456L45.9843 186.566L56.1458 185.865C56.1458 185.865 114.328 183.815 152.245 196.867C152.244 196.867 162.761 195.015 158.354 189.189Z" fill="#F91E00"/>
<path d="M14.9384 89.7389L28.5331 88.0928C28.5331 88.0928 41.745 58.1002 77.5506 61.5755C113.356 65.0501 118.717 88.8249 118.717 88.8249L139.588 92.2994L136.397 101.809L105.668 100.186C105.668 100.186 109.281 72.1925 72.4431 69.7251C45.1598 69.7251 33.6519 100.386 33.6519 100.386L17.8449 101.895L14.9384 89.7389Z" fill="#F8E38B"/>
<path d="M152.58 172.368C152.58 172.368 106.596 164.929 59.9037 191.494L56.6389 202.547C56.6389 202.547 61.638 206.544 64.8123 208C64.8123 208 134.774 181.151 153.946 183.364L154.698 175.833L152.58 172.368Z" fill="#F1A93F"/>
<path opacity="0.15" d="M152.58 172.368C152.58 172.368 106.596 164.929 59.9037 191.494L67.5048 197.838L64.8127 208C64.8127 208 134.774 181.152 153.947 183.365L154.702 175.805L152.58 172.368Z" fill="#F91E00"/>
<path d="M152.58 172.368C152.58 172.368 106.596 164.929 59.9037 191.494L67.5048 197.838C90.2303 178.558 154.7 175.822 154.7 175.822L152.58 172.368Z" fill="#F1C23F"/>
</g>
<defs>
<clipPath id="clip0_1_1351">
<rect width="160" height="208" fill="white"/>
</clipPath>
</defs>
</svg>
